<svg width="25" height="24" viewBox="0 0 25 24" fill="none" xmlns="http://www.w3.org/2000/svg">
<path d="M15.2302 0.0587747C14.5927 -0.170864 13.9289 0.2931 13.7451 1.08981L8.94472 22.0854C8.76096 22.8821 9.13224 23.7116 9.76979 23.9412C10.4073 24.1709 11.0711 23.7069 11.2549 22.9102L16.0553 1.91463C16.239 1.11793 15.8678 0.288414 15.2302 0.0587747ZM18.253 5.68727C17.7842 6.27309 17.7842 7.22445 18.253 7.81026L21.602 12L18.2492 16.1897C17.7804 16.7756 17.7804 17.7269 18.2492 18.3127C18.718 18.8985 19.4793 18.8985 19.9481 18.3127L24.1484 13.0638C24.6172 12.478 24.6172 11.5267 24.1484 10.9408L19.9481 5.69196C19.4793 5.10614 18.718 5.10614 18.2492 5.69196L18.253 5.68727ZM6.7508 5.68727C6.28202 5.10146 5.52071 5.10146 5.05192 5.68727L0.85159 10.9362C0.382803 11.522 0.382803 12.4733 0.85159 13.0592L5.05192 18.308C5.52071 18.8939 6.28202 18.8939 6.7508 18.308C7.21959 17.7222 7.21959 16.7709 6.7508 16.1851L3.39804 12L6.7508 7.81026C7.21959 7.22445 7.21959 6.27309 6.7508 5.68727Z" fill="#FFD43B"/>
</svg>
